<svg width="1000" height="1000" viewBox="0 0 1000 1000" fill="none" xmlns="http://www.w3.org/2000/svg">
<path d="M500.033 0C223.845 0 0 223.812 0 499.975C0 776.138 223.845 1000 500.033 1000C776.222 1000 1000 776.138 1000 499.975C999.916 223.812 776.055 0 500.033 0ZM720.131 296.491C723.204 295.662 726.474 295.977 729.332 297.378C732.19 298.779 734.443 301.171 735.67 304.108C736.897 307.046 737.016 310.329 736.004 313.347C734.992 316.366 732.918 318.914 730.168 320.517V407.854L717.003 411.2V320.501C714.76 319.205 712.949 317.275 711.799 314.954C710.648 312.632 710.209 310.023 710.536 307.453C710.863 304.883 711.942 302.467 713.637 300.508C715.332 298.549 717.568 297.134 720.064 296.441L720.131 296.491ZM690.739 247.62L703.904 240.091V414.094L690.739 417.574V247.62ZM664.425 262.678L677.59 255.149V421.038L664.425 424.501V262.678ZM641.172 276.766C644.245 275.936 647.515 276.251 650.373 277.652C653.232 279.053 655.484 281.445 656.711 284.382C657.938 287.32 658.057 290.603 657.045 293.621C656.033 296.64 653.959 299.188 651.21 300.791V427.948L638.061 431.394V300.892C635.812 299.599 633.996 297.67 632.841 295.348C631.685 293.026 631.242 290.413 631.568 287.84C631.893 285.266 632.972 282.847 634.669 280.885C636.367 278.923 638.606 277.508 641.105 276.816L641.172 276.766ZM611.814 292.794L624.979 285.265V434.891L611.814 438.354V292.794ZM585.5 307.852L598.665 300.323V441.701L585.5 445.164V307.852ZM72.3008 688.183L70.8957 407.854L85.5499 394.686V681.356L95.4197 676.337V419.197C92.9099 417.748 90.9483 415.511 89.8392 412.833C88.7301 410.155 88.5355 407.186 89.2856 404.386C90.0357 401.586 91.6886 399.112 93.9878 397.348C96.2871 395.583 99.1043 394.627 102.002 394.627C104.901 394.627 107.718 395.583 110.017 397.348C112.316 399.112 113.969 401.586 114.719 404.386C115.469 407.186 115.275 410.155 114.166 412.833C113.057 415.511 111.095 417.748 108.585 419.197V685.221L85.5666 697.184V717.094L72.4012 707.223V700.798M131.637 484.967V749.987L118.472 740.116V484.984C115.962 483.535 114 481.297 112.891 478.62C111.782 475.942 111.588 472.972 112.338 470.173C113.088 467.373 114.741 464.899 117.04 463.134C119.339 461.37 122.156 460.413 125.054 460.413C127.953 460.413 130.77 461.37 133.069 463.134C135.368 464.899 137.021 467.373 137.771 470.173C138.521 472.972 138.327 475.942 137.218 478.62C136.109 481.297 134.147 483.535 131.637 484.984V484.967ZM157.951 765.865L144.786 756.529V368.653L157.951 361.525V765.865ZM190.839 782.864C190.851 785.178 190.252 787.455 189.103 789.464C187.955 791.473 186.297 793.144 184.297 794.309C182.297 795.473 180.025 796.089 177.711 796.096C175.397 796.102 173.122 795.498 171.115 794.345C169.109 793.192 167.442 791.531 166.282 789.528C165.122 787.525 164.51 785.252 164.509 782.937C164.507 780.623 165.116 778.349 166.273 776.344C167.43 774.34 169.095 772.676 171.1 771.52V590.256C168.094 588.541 165.892 585.702 164.979 582.363C164.067 579.025 164.517 575.46 166.232 572.454C167.381 570.418 169.064 568.734 171.1 567.585V354.398L184.265 347.27V567.585C186.264 568.726 187.927 570.375 189.083 572.366C190.239 574.357 190.848 576.618 190.848 578.92C190.848 581.223 190.239 583.484 189.083 585.475C187.927 587.465 186.264 589.115 184.265 590.256V771.554C186.246 772.707 187.889 774.36 189.031 776.348C190.173 778.336 190.774 780.588 190.773 782.881L190.839 782.864ZM233.38 333.785V818.986L220.432 809.115V727.635L197.414 706.236V412.622C194.904 411.173 192.942 408.936 191.833 406.258C190.724 403.58 190.53 400.611 191.28 397.811C192.03 395.011 193.683 392.537 195.982 390.772C198.281 389.008 201.098 388.051 203.996 388.051C206.895 388.051 209.712 389.008 212.011 390.772C214.31 392.537 215.963 395.011 216.713 397.811C217.463 400.611 217.269 403.58 216.16 406.258C215.051 408.936 213.089 411.173 210.579 412.622V702.32L220.449 711.924V333.668C218.193 332.367 216.374 330.427 215.221 328.092C214.067 325.758 213.632 323.133 213.97 320.551C214.308 317.969 215.404 315.545 217.119 313.586C218.834 311.627 221.092 310.221 223.606 309.544C226.121 308.868 228.779 308.953 231.245 309.788C233.711 310.623 235.875 312.171 237.462 314.235C239.049 316.299 239.988 318.788 240.161 321.387C240.333 323.985 239.732 326.576 238.432 328.833C237.242 330.927 235.508 332.661 233.414 333.852L233.38 333.785ZM754.308 756.579L243.468 822.399V320.785L528.907 404.44V520.922L754.308 553.799V756.579ZM756.616 400.325L743.468 403.771V217.504L756.616 209.992V400.325ZM776.356 772.608L765.599 767.589V407.87L766.921 215.463C764.23 214.028 762.123 211.701 760.962 208.88C759.802 206.06 759.66 202.923 760.561 200.01C761.463 197.096 763.351 194.588 765.902 192.916C768.452 191.245 771.505 190.514 774.536 190.85C777.567 191.187 780.386 192.569 782.508 194.759C784.63 196.949 785.923 199.81 786.164 202.85C786.406 205.89 785.58 208.92 783.829 211.417C782.079 213.914 779.513 215.724 776.573 216.534H776.339L776.356 772.608ZM799.257 524.519V788.034L789.438 781.442V525.824C786.631 525.111 784.14 523.489 782.352 521.211C780.564 518.934 779.58 516.128 779.553 513.232C779.526 510.337 780.459 507.513 782.204 505.203C783.95 502.893 786.411 501.225 789.203 500.46H789.438V191.186L799.24 185.581V501.665C801.258 502.809 802.937 504.468 804.104 506.473C805.272 508.477 805.887 510.755 805.887 513.075C805.887 515.395 805.272 517.674 804.104 519.678C802.937 521.683 801.258 523.342 799.24 524.486L799.257 524.519ZM808.943 794.609V192.29L861.805 240.359V749.987L808.943 794.609Z" fill="#1D4A5C"/>
</svg>
